<svg xmlns="http://www.w3.org/2000/svg" width="21" height="21" viewBox="0 0 21 21"><defs><linearGradient id="2poba" x1="12" x2="9" y1="0" y2="21" gradientUnits="userSpaceOnUse"><stop offset="0" stop-color="#ff1f17"/><stop offset="1" stop-color="#ce0902"/></linearGradient></defs><g><g><path fill="#f2f9fb" d="M10.5 0C16.299 0 21 4.7 21 10.5 21 16.299 16.299 21 10.5 21S0 16.299 0 10.5C0 4.7 4.701 0 10.5 0z"/><path fill="url(#2poba)" d="M10.5 0C16.299 0 21 4.7 21 10.5 21 16.299 16.299 21 10.5 21S0 16.299 0 10.5C0 4.7 4.701 0 10.5 0z"/></g><g><path fill="#f2f9fb" d="M10.5 5a5.5 5.5 0 1 1 0 11 5.5 5.5 0 0 1 0-11z"/></g></g></svg>