<?xml version="1.0" encoding="utf-8"?>
<!-- Generator: Adobe Illustrator 22.0.1, SVG Export Plug-In . SVG Version: 6.00 Build 0)  -->
<svg version="1.1" id="Layer_1" xmlns="http://www.w3.org/2000/svg" xmlns:xlink="http://www.w3.org/1999/xlink" x="0px" y="0px"
	 viewBox="0 0 512 512" style="enable-background:new 0 0 512 512;" xml:space="preserve">
<style type="text/css">
	.st0{fill:#FFA000;}
</style>
<g>
	<path class="st0" d="M422,256.6V91.5c0-24.8-20.2-45-45-45H45c-24.8,0-45,20.2-45,45v222c0,24.8,20.2,45,45,45h257c0,0.7,0,1.3,0,2
		c0,57.9,47.1,105,105,105s105-47.1,105-105C512,307.7,472.8,263.9,422,256.6z M45,76.5h332c8.3,0,15,6.7,15,15v9H30v-9
		C30,83.2,36.7,76.5,45,76.5z M30,130.5h362v30H30V130.5z M45,328.5c-8.3,0-15-6.7-15-15v-123h362v66.1c-40.1,5.8-72.9,34.2-85,71.9
		H45z M407,435.5c-41.4,0-75-33.6-75-75s33.6-75,75-75s75,33.6,75,75S448.4,435.5,407,435.5z"/>
	<path class="st0" d="M428.9,332.9l-25.4,25.4l-7.9-7.9c-5.9-5.9-15.4-5.9-21.2,0s-5.9,15.4,0,21.2l18.5,18.5
		c2.9,2.9,6.8,4.4,10.6,4.4s7.7-1.5,10.6-4.4l36-36c5.9-5.9,5.9-15.4,0-21.2C444.2,327,434.8,327,428.9,332.9L428.9,332.9z"/>
	<path class="st0" d="M75,250.5h37.5c8.3,0,15-6.7,15-15s-6.7-15-15-15H75c-8.3,0-15,6.7-15,15S66.7,250.5,75,250.5z"/>
	<path class="st0" d="M160,268.5H75c-8.3,0-15,6.7-15,15s6.7,15,15,15h85c8.3,0,15-6.7,15-15S168.3,268.5,160,268.5z"/>
</g>
</svg>
