<?xml version="1.0" encoding="utf-8"?>
<!-- Generator: Adobe Illustrator 22.0.1, SVG Export Plug-In . SVG Version: 6.00 Build 0)  -->
<svg version="1.1" id="Capa_1" xmlns="http://www.w3.org/2000/svg" xmlns:xlink="http://www.w3.org/1999/xlink" x="0px" y="0px"
	 viewBox="0 0 512 512" style="enable-background:new 0 0 512 512;" xml:space="preserve">
<style type="text/css">
	.st0{fill:#FFA000;}
</style>
<g>
	<g>
		<path class="st0" d="M240.6,160.1c9.6-10.6,15.4-24.7,15.4-40.1c0-33.1-26.9-60-60-60c-16,0-31.2,6.2-42.8,17.4
			C141.5,88.8,135,103.9,135,120c0,15,5.7,29.2,16,40.3c-34.6,16.8-61,53.3-61,96.7v30c0,8.3,6.7,15,15,15h182c8.3,0,15-6.7,15-15
			v-30C302,213.9,275.8,177,240.6,160.1z M196,90c16.5,0,30,13.5,30,30s-13.5,30-30,30c-16.8,0-31-13.7-31-30S179.2,90,196,90z
			 M272,272H120v-15c0-41.7,34.8-77,76-77s76,35.3,76,77V272z"/>
	</g>
</g>
<g>
	<g>
		<path class="st0" d="M392,272V15c0-8.3-6.7-15-15-15H117.4c-12,0-23.3,4.7-31.8,13.2L13.2,85.6C4.7,94.1,0,105.4,0,117.4V467
			c0,8.3,6.7,15,15,15h297.7c21.2,18.7,48.9,30,79.3,30c66.2,0,120-53.8,120-120S458.2,272,392,272z M90,51.2V90H51.2L90,51.2z
			 M30,452V120h75c8.3,0,15-6.7,15-15V30h242v245.8c-31.5,8.1-58,28.8-73.9,56.3c-0.4,0-0.7-0.1-1.1-0.1H105c-8.3,0-15,6.7-15,15
			s6.7,14.9,15,14.9h170.8c-2.5,9.6-3.8,19.7-3.8,30.1H105c-8.3,0-15,6.7-15,15s6.7,15,15,15h170.8c2.7,10.6,6.9,20.7,12.3,30
			L30,452L30,452z M392,482c-49.6,0-90-40.4-90-90s40.4-90,90-90s90,40.4,90,90S441.6,482,392,482z"/>
	</g>
</g>
<g>
	<g>
		<path class="st0" d="M447.6,351.4c-5.9-5.9-15.4-5.9-21.2,0L377,400.8l-19.4-19.4c-5.9-5.9-15.4-5.9-21.2,0s-5.9,15.4,0,21.2
			l30,30c2.9,2.9,6.8,4.4,10.6,4.4s7.7-1.5,10.6-4.4l60-60C453.5,366.7,453.5,357.3,447.6,351.4z"/>
	</g>
</g>
</svg>
