<?xml version="1.0" encoding="utf-8"?>
<!-- Generator: Adobe Illustrator 22.0.1, SVG Export Plug-In . SVG Version: 6.00 Build 0)  -->
<svg version="1.1" id="Layer_1" xmlns="http://www.w3.org/2000/svg" xmlns:xlink="http://www.w3.org/1999/xlink" x="0px" y="0px"
	 viewBox="0 0 512 512" style="enable-background:new 0 0 512 512;" xml:space="preserve">
<style type="text/css">
	.st0{fill:#FFA000;}
</style>
<g>
	<path class="st0" d="M112.8,156.7c4.1,0,8.1-1.7,11.1-4.9l61.9-68l86.2,63.7c6,4.4,14.4,3.8,19.6-1.5l92.3-93.6v60.4
		c0,8.3,6.7,15,15,15s15-6.7,15-15v-97c0-8.3-6.7-15-15-15H308c-8.3,0-15,6.7-15,15s6.7,15,15,15h55l-83.6,84.8l-86.6-64
		c-6.2-4.6-14.8-3.7-20,2l-71,78c-5.6,6.1-5.1,15.6,1,21.2C105.6,155.4,109.2,156.7,112.8,156.7L112.8,156.7z"/>
	<path class="st0" d="M435.5,389.9c14.2-14.8,22.9-34.8,22.9-56.8c0-45.2-36.8-82-82-82c-13.1,0-26,3.2-37.5,9.1
		c-15.6-30.6-47.5-51.7-84.2-51.7c-36.3,0-67.8,20.6-83.7,50.7c-11-5.3-23.1-8.1-35.4-8.1c-45.2,0-82,36.8-82,82
		c0,22,8.7,42,22.9,56.8C32.3,403.4,0,444.7,0,493.3v2.8c0,8.3,6.7,15,15,15h482c8.3,0,15-6.7,15-15v-2.8
		C512,444.7,479.7,403.4,435.5,389.9L435.5,389.9z M376.4,281.1c28.7,0,52,23.3,52,52s-23.3,52-52,52c-0.1,0-0.3,0-0.4,0h-11.1
		c-12.6-8.3-27-14-42.5-16.5c16.5-17,26.7-40.2,26.7-65.8c0-4.6-0.3-9.1-1-13.5C356.5,283.9,366.2,281.1,376.4,281.1L376.4,281.1z
		 M254.7,238.5c35.5,0,64.4,28.9,64.4,64.4s-28.9,64.4-64.4,64.4s-64.4-28.9-64.4-64.4S219.2,238.5,254.7,238.5L254.7,238.5z
		 M135.6,281.1c9.2,0,18,2.4,25.9,6.9c-0.8,4.9-1.2,9.9-1.2,15c0,25.7,10.3,49,27,66.1c-14.8,2.6-28.5,8.2-40.6,16.1H136
		c-0.1,0-0.3,0-0.4,0c-28.7,0-52-23.3-52-52C83.6,304.4,106.9,281.1,135.6,281.1L135.6,281.1z M108.1,415.1h8.2
		c-11.6,17.2-18.5,38-18.5,60.4v5.6H30.9C36.8,443.8,69.2,415.1,108.1,415.1z M127.9,475.5c0-25.3,12.1-47.7,30.7-62
		c1.4-0.7,2.6-1.6,3.7-2.7c12.5-8.5,27.5-13.4,43.7-13.4h34.8v83.8H127.9V475.5L127.9,475.5z M383.7,481.1H270.8v-83.8h34.8
		c43.1,0,78.1,35,78.1,78.1L383.7,481.1z M413.7,481.1v-5.6c0-22.3-6.8-43.1-18.5-60.4h8.6c39,0,71.4,28.7,77.2,66H413.7z"/>
</g>
</svg>
