<?xml version="1.0" encoding="utf-8"?>
<!-- Generator: Adobe Illustrator 22.0.1, SVG Export Plug-In . SVG Version: 6.00 Build 0)  -->
<svg version="1.1" id="Capa_1" xmlns="http://www.w3.org/2000/svg" xmlns:xlink="http://www.w3.org/1999/xlink" x="0px" y="0px"
	 viewBox="0 0 512 512" style="enable-background:new 0 0 512 512;" xml:space="preserve">
<style type="text/css">
	.st0{fill:#FFA000;}
</style>
<path class="st0" d="M445.2,225.2c9.6-11.8,15.3-26.9,15.3-43.3c0-37.9-30.9-68.8-68.8-68.8s-68.8,30.9-68.8,68.8
	c0,16.4,5.8,31.4,15.4,43.3c-9.1,2.9-17.7,7.1-25.6,12.6c-12.4-18.1-33.2-29.9-56.7-29.9s-44.3,11.9-56.7,29.9
	c-7.9-5.4-16.5-9.7-25.6-12.6c9.6-11.8,15.4-26.9,15.4-43.3c0-37.9-30.9-68.8-68.8-68.8S51.5,144,51.5,181.9
	c0,16.4,5.8,31.4,15.3,43.3C28.1,237.6,0,273.9,0,316.6v85.2c0,8.3,6.7,15,15,15h120.7v79.7c0,8.3,6.7,15,15,15h210.4
	c8.3,0,15-6.7,15-15v-79.7H497c8.3,0,15-6.7,15-15v-85.2C512,273.9,483.9,237.6,445.2,225.2L445.2,225.2z M391.8,143.2
	c21.4,0,38.7,17.4,38.7,38.7s-17.4,38.7-38.7,38.7h-0.1c-21.3,0-38.7-17.4-38.7-38.7C353,160.6,370.4,143.2,391.8,143.2z M256,238
	c21.5,0,39,17.6,38.7,39.3c-0.3,21.2-17.6,38.2-38.7,38.2c-21.4,0-38.7-17.5-38.7-38.7C217.3,255.6,234.4,238,256,238L256,238z
	 M120.2,143.2c21.4,0,38.7,17.4,38.7,38.7s-17.4,38.7-38.7,38.7h-0.1c-21.3,0-38.7-17.4-38.7-38.7
	C81.5,160.6,98.9,143.2,120.2,143.2z M30.1,316.6c0-36.3,29.5-65.8,65.8-65.8h48.8c15.9,0,31.3,5.8,43.2,16.2
	c-2.7,19,2.7,38.2,14.6,53c-31.1,9.9-55.2,35.3-63.5,66.8H94.2v-56.2c0-8.3-6.7-15-15-15s-15,6.7-15,15v56.2H30.1V316.6z
	 M346.2,481.4h-30.1V437c0-8.3-6.7-15-15-15s-15,6.7-15,15v44.4H226V437c0-8.3-6.7-15-15-15s-15,6.7-15,15v44.4h-30.1v-70.1
	c0-36.1,29.4-65.8,65.8-65.8h48.8c36.4,0,65.8,29.6,65.8,65.8L346.2,481.4L346.2,481.4z M481.9,386.7h-34.1v-56.2
	c0-8.3-6.7-15-15-15s-15,6.7-15,15v56.2H373c-8.3-31.3-32.2-56.8-63.5-66.8c11.5-14.2,17.4-33.3,14.6-53
	c11.9-10.4,27.3-16.2,43.2-16.2h48.8c36.3,0,65.8,29.5,65.8,65.8L481.9,386.7L481.9,386.7z"/>
<path class="st0" d="M174.8,76.7c3.4,7.6,12.3,10.9,19.9,7.5c7.6-3.4,10.9-12.3,7.5-19.9l-20-44.1c-3.4-7.6-12.3-10.9-19.9-7.5
	c-7.6,3.4-10.9,12.3-7.5,19.9L174.8,76.7z"/>
<path class="st0" d="M317.3,84.1c7.6,3.4,16.5,0.1,19.9-7.5l20-44.1c3.4-7.6,0.1-16.5-7.5-19.9s-16.5-0.1-19.9,7.5l-20,44.1
	C306.4,71.8,309.7,80.7,317.3,84.1z"/>
<path class="st0" d="M256,74.5c8.3,0,15-6.7,15-15v-44c0-8.3-6.7-15-15-15s-15,6.7-15,15v43.9C241,67.7,247.7,74.5,256,74.5
	L256,74.5z"/>
</svg>
