<?xml version="1.0" encoding="utf-8"?>
<!-- Generator: Adobe Illustrator 22.0.1, SVG Export Plug-In . SVG Version: 6.00 Build 0)  -->
<svg version="1.1" id="Capa_1" xmlns="http://www.w3.org/2000/svg" xmlns:xlink="http://www.w3.org/1999/xlink" x="0px" y="0px"
	 viewBox="0 0 512 512" style="enable-background:new 0 0 512 512;" xml:space="preserve">
<style type="text/css">
	.st0{fill:#FFA000;}
</style>
<g>
	<path class="st0" d="M449.7,255H62.3c-4.9,0-9.4-2.4-12.2-6.3c-2.8-4-3.5-9.1-1.9-13.7c0.6-1.6,0.9-3.3,0.9-5c0-0.6,0-1.1,0.1-1.7
		l12.8-115.6c0,0,0-0.1,0-0.1C64.6,90.1,83.9,73,106.6,73h298.7c22.8,0,42,17.1,44.7,39.7c0,0,0,0.1,0,0.1l12.8,115.6
		c0.1,0.5,0.1,1.1,0.1,1.7c0,1.7,0.3,3.4,0.9,5c1.6,4.6,0.9,9.7-1.9,13.7C459.2,252.6,454.6,255,449.7,255z M79.7,225h352.7
		l-12.1-108.8c-0.9-7.5-7.3-13.2-14.9-13.2H106.6c-7.6,0-14,5.7-14.9,13.2L79.7,225z"/>
</g>
<g>
	<path class="st0" d="M467,447H45c-24.8,0-45-20.2-45-45v-88c0-9.7,3.2-19.3,9-27c0-0.1,0.1-0.1,0.1-0.2L46,238.9
		c0.9-1.2,1.6-2.5,2.1-4c2.1-6,7.8-10,14.1-10h387.4c6.4,0,12,4,14.1,10c0.5,1.4,1.2,2.7,2.1,4l36.9,47.9c0,0.1,0.1,0.1,0.1,0.2
		c5.8,7.7,9,17.3,9,27v88C512,426.8,491.8,447,467,447L467,447z M33,305.1c-1.9,2.6-3,5.7-3,8.9v88c0,8.3,6.7,15,15,15h422
		c8.3,0,15-6.7,15-15v-88c0-3.2-1-6.4-3-8.9l-36.9-47.9c0-0.1-0.1-0.1-0.1-0.2c-0.5-0.6-0.9-1.3-1.4-2H71.4c-0.4,0.7-0.9,1.3-1.4,2
		c0,0.1-0.1,0.1-0.1,0.2L33,305.1z"/>
</g>
<g>
	<path class="st0" d="M312,447H200c-8.3,0-15-5.3-15-11.9v-27c0-19.7,20.2-35.8,45-35.8h52c24.8,0,45,16.1,45,35.8v27
		C327,441.7,320.3,447,312,447z M215,423.1h82V408c0-6.6-6.7-11.9-15-11.9h-52c-8.3,0-15,5.4-15,11.9V423.1z"/>
</g>
<g>
	<path class="st0" d="M112,383c-25.9,0-47-21.1-47-47s21.1-47,47-47s47,21.1,47,47S137.9,383,112,383z M112,319c-9.4,0-17,7.6-17,17
		s7.6,17,17,17s17-7.6,17-17S121.4,319,112,319z"/>
</g>
<g>
	<path class="st0" d="M400,383c-25.9,0-47-21.1-47-47s21.1-47,47-47c25.9,0,47,21.1,47,47S425.9,383,400,383z M400,319
		c-9.4,0-17,7.6-17,17s7.6,17,17,17c9.4,0,17-7.6,17-17S409.4,319,400,319z"/>
</g>
<g>
	<path class="st0" d="M449.7,255c-6.3,0-12.1-3.9-14.2-10.2c-2.7-7.8,1.6-16.4,9.4-19l47.3-16c7.8-2.7,16.4,1.6,19,9.4
		c2.7,7.8-1.6,16.4-9.4,19l-47.3,16C452.9,254.7,451.3,255,449.7,255z"/>
</g>
<g>
	<path class="st0" d="M62.3,255c-1.6,0-3.2-0.3-4.8-0.8l-47.3-16c-7.8-2.7-12.1-11.2-9.4-19s11.2-12.1,19-9.4l47.3,16
		c7.8,2.7,12.1,11.2,9.4,19C74.4,251.1,68.5,255,62.3,255z"/>
</g>
<g>
	<path class="st0" d="M144,512H56c-8.3,0-15-6.7-15-15v-65c0-8.3,6.7-15,15-15h88c8.3,0,15,6.7,15,15v65
		C159,505.3,152.3,512,144,512z M71,482h58v-35H71V482z"/>
</g>
<g>
	<path class="st0" d="M456,512h-88c-8.3,0-15-6.7-15-15v-65c0-8.3,6.7-15,15-15h88c8.3,0,15,6.7,15,15v65
		C471,505.3,464.3,512,456,512z M383,482h58v-35h-58V482z"/>
</g>
<rect x="222.3" y="279.9" transform="matrix(0.7071 -0.7071 0.7071 0.7071 -146.7759 272.8748)" class="st0" width="67.3" height="67.3"/>
</svg>
