<?xml version="1.0" encoding="utf-8"?>
<!-- Generator: Adobe Illustrator 22.0.1, SVG Export Plug-In . SVG Version: 6.00 Build 0)  -->
<svg version="1.1" id="Layer_1" xmlns="http://www.w3.org/2000/svg" xmlns:xlink="http://www.w3.org/1999/xlink" x="0px" y="0px"
	 viewBox="0 0 512 512" style="enable-background:new 0 0 512 512;" xml:space="preserve">
<style type="text/css">
	.st0{fill:#fff;}
</style>
<path class="st0" d="M493.5,82.5C481.5,70.6,465.7,64,448.8,64H63.2c-16.9,0-32.7,6.6-44.7,18.5C6.6,94.4,0,110.3,0,127.2v257.1
	C0,401.1,6.6,417,18.5,429c11.9,11.9,27.8,18.5,44.7,18.5h385.6c16.9,0,32.7-6.6,44.7-18.5c11.9-11.9,18.5-27.8,18.5-44.7V127.2
	C512,110.3,505.4,94.4,493.5,82.5z M472.3,103.7c6.3,6.3,9.7,14.6,9.7,23.5v65.3h-37.5c2.1-5.3,3.2-11.1,3.2-17.1
	c0-26-21.1-47.1-47.1-47.1c-6,0-11.8,1.2-17.1,3.2V94h65.3C457.7,94,466,97.5,472.3,103.7z M417.7,239.7c0,9.4-7.7,17.1-17.1,17.1
	c-9.4,0-17.1-7.7-17.1-17.1v-17.1h17.1C410,222.5,417.7,230.2,417.7,239.7z M319.2,175.4c0-9.4,7.7-17.1,17.1-17.1h0.4
	c4.5,0,8.7,1.7,11.8,4.9c3.2,3.2,4.9,7.4,4.9,11.8v17.6h-17.1C326.9,192.5,319.2,184.8,319.2,175.4z M400.6,192.5h-17.1v-17.1
	c0-9.4,7.7-17.1,17.1-17.1c9.4,0,17.1,7.7,17.1,17.1C417.7,184.8,410,192.5,400.6,192.5z M336.3,222.5h17.1v17.6
	c0,4.5-1.7,8.7-4.9,11.8c-3.2,3.2-7.4,4.9-11.8,4.9h-0.4c-9.4,0-17.1-7.7-17.1-17.1C319.2,230.2,326.9,222.5,336.3,222.5z
	 M39.7,103.7C46,97.5,54.3,94,63.2,94h290.3v37.3c-5.3-2-10.9-3.1-16.7-3.1h-0.4c-26,0-47.1,21.1-47.1,47.1c0,6,1.2,11.8,3.2,17.1
	H30v-65.3C30,118.3,33.5,110,39.7,103.7z M39.7,407.7c-6.3-6.3-9.7-14.6-9.7-23.5V222.5h262.4c-2.1,5.3-3.2,11.1-3.2,17.1
	c0,26,21.1,47.1,47.1,47.1h0.4c5.8,0,11.4-1.1,16.7-3.1v133.8H63.2C54.3,417.5,46,414,39.7,407.7z M472.3,407.7
	c-6.3,6.3-14.6,9.7-23.5,9.7h-65.3V283.6c5.3,2.1,11.1,3.2,17.1,3.2c26,0,47.1-21.1,47.1-47.1c0-6-1.2-11.8-3.2-17.1H482v161.7
	C482,393.1,478.5,401.5,472.3,407.7z"/>
<path class="st0" d="M143.5,353.2H79.3c-8.3,0-15,6.7-15,15c0,8.3,6.7,15,15,15h64.3c8.3,0,15-6.7,15-15
	C158.5,359.9,151.8,353.2,143.5,353.2z"/>
<path class="st0" d="M191.7,288.9H79.3c-8.3,0-15,6.7-15,15s6.7,15,15,15h112.5c8.3,0,15-6.7,15-15S200,288.9,191.7,288.9z"/>
</svg>
