<?xml version="1.0" encoding="utf-8"?>
<!-- Generator: Adobe Illustrator 22.0.1, SVG Export Plug-In . SVG Version: 6.00 Build 0)  -->
<svg version="1.1" id="Capa_1" xmlns="http://www.w3.org/2000/svg" xmlns:xlink="http://www.w3.org/1999/xlink" x="0px" y="0px"
	 viewBox="0 0 512 512" style="enable-background:new 0 0 512 512;" xml:space="preserve">
<style type="text/css">
	.st0{fill:#fff;}
</style>
<g>
	<path class="st0" d="M497,32h-75V15c0-8.3-6.7-15-15-15c-8.3,0-15,6.7-15,15v17h-90V15c0-8.3-6.7-15-15-15c-8.3,0-15,6.7-15,15v17
		h-90V15c0-8.3-6.7-15-15-15s-15,6.7-15,15v17H77c-8.3,0-15,6.7-15,15v90C62,312.3,1.4,490.3,0.8,492.1C-2.6,502,4.9,512,15,512
		c43.6,0-100.2,0,482,0c8.3,0,15-6.7,15-15V47C512,38.7,505.3,32,497,32L497,32z M152,62v15c0,8.3,6.7,15,15,15s15-6.7,15-15V62h90
		v15c0,8.3,6.7,15,15,15c8.3,0,15-6.7,15-15V62h90v15c0,8.3,6.7,15,15,15c8.3,0,15-6.7,15-15V62h60v60H92V62L152,62z M91.9,152h390
		C479.1,298.3,438,442.9,426,482H35.6C66.1,382.7,89.9,259.7,91.9,152L91.9,152z M482,482h-24.6c5.8-19.5,15-52.5,24.3-94.2
		c0.1-0.5,0.2-1.1,0.4-1.6L482,482L482,482z"/>
	<path class="st0" d="M242,452c73.6,0,146.4-58.8,164.5-131.4C425.7,244.1,377.3,182,302,182c-73.6,0-146.4,58.8-164.5,131.4
		C118.3,389.9,166.7,452,242,452z M166.6,320.6C181.5,260.7,242.3,212,302,212c56.2,0,89.7,44.2,75.4,101.4
		C362.5,373.3,301.7,422,242,422C185.8,422,152.3,377.8,166.6,320.6z"/>
	<path class="st0" d="M272,332h60c8.3,0,15-6.7,15-15c0-8.3-6.7-15-15-15h-40.8l10.3-41.4c2-8-2.9-16.2-10.9-18.2
		c-8-2-16.2,2.9-18.2,10.9l-15,60C255.1,322.8,262.3,332,272,332z"/>
</g>
</svg>
