<?xml version="1.0" encoding="utf-8"?>
<!-- Generator: Adobe Illustrator 22.0.1, SVG Export Plug-In . SVG Version: 6.00 Build 0)  -->
<svg version="1.1" id="Слой_1" xmlns="http://www.w3.org/2000/svg" xmlns:xlink="http://www.w3.org/1999/xlink" x="0px" y="0px"
	 viewBox="0 0 438.4 89.9" style="enable-background:new 0 0 438.4 89.9;" xml:space="preserve">
<style type="text/css">
	.st0{fill-rule:evenodd;clip-rule:evenodd;fill:#004680;}
	.st1{fill-rule:evenodd;clip-rule:evenodd;fill:#D24A43;}
</style>
<path class="st0" d="M47.3,18.1l23.5,23.4l1.4,1.3h18.2l-10.9-4.4c-2.9-15.4-16.1-27.3-32.2-28.2V18.1z"/>
<path class="st0" d="M47.3,89.9l4.4-10.8c15.5-2.9,27.4-16,28.3-32H62.9v19.7H47.3V89.9z"/>
<path class="st1" d="M48.5,42.3c-1.8,1.8-4.8,1.8-6.6,0c-1.9-1.8-1.9-4.8,0-6.6c1.8-1.8,4.8-1.8,6.6,0
	C50.3,37.5,50.3,40.5,48.5,42.3L48.5,42.3L48.5,42.3z M45.2,61.5c2.9-3.8,10.6-16.5,10.6-22.4c0-2.7-1-5.5-3.1-7.6
	c-4.1-4.1-10.8-4.1-14.9,0c-2.1,2-3.1,4.7-3.1,7.3C34.6,45,42.3,57.6,45.2,61.5L45.2,61.5z"/>
<path class="st0" d="M43.1,0l-4.4,10.9c-15.5,2.9-27.4,16-28.4,32h7.9l9.3-9.3V25h5.8v2.9l9.8-9.8V0z"/>
<path class="st0" d="M0,47l10.9,4.4C13.8,66.8,27,78.7,43.1,79.6V66.8H27.5V47H0z"/>
<path class="st0" d="M132.5,24.8h-29.7v40.5h11.3V33.8h18.3L132.5,24.8L132.5,24.8z M154,66c-13,0-22.5-8.9-22.5-21s9.5-21,22.5-21
	c13,0,22.5,8.9,22.5,21S167,66,154,66L154,66z M154,56.6c6.1,0,10.9-4.6,10.9-11.6c0-7-4.8-11.6-10.9-11.6
	c-6.1,0-10.9,4.6-10.9,11.6C143.1,52,147.9,56.6,154,56.6L154,56.6z M201.1,24.8h-18.5v40.5h11.4V54.6h7.1c11,0,18-5.7,18-14.9
	C219.1,30.5,212.2,24.8,201.1,24.8L201.1,24.8z M200.5,45.6h-6.4V33.8h6.4c4.7,0,7.1,2.2,7.1,6C207.6,43.4,205.2,45.6,200.5,45.6
	L200.5,45.6z M224.3,65.2h10.8l16.7-23.7v23.7H263V24.8h-10.8l-16.7,23.8V24.8h-11.3V65.2L224.3,65.2z M296.7,44.2
	c3.4-1.7,5.6-4.7,5.6-8.6c0-7.5-8.7-11.8-18.5-11.8c-4.7,0-9.8,1-14.2,3.1l3.4,8.7c3.5-1.9,7.5-2.8,10.8-2.8c4,0,7.1,1.4,7.1,4.1
	c0,2.1-1.7,3.4-4.9,3.4h-9.4v8.4h10.3c3.2,0,5.6,1,5.6,3.5c0,3.1-3.8,4.7-8.7,4.7c-3.7,0-8-0.9-11.8-2.8l-3.4,8
	c5.3,2.7,11.1,3.9,16.5,3.9c10.3,0,19-4.5,19-12.3C303.9,49.4,301.2,45.9,296.7,44.2L296.7,44.2z M330,66c13,0,22.5-8.9,22.5-21
	s-9.5-21-22.5-21c-13,0-22.5,8.9-22.5,21S317,66,330,66L330,66z M330,56.6C323.8,56.6,319,52,319,45c0-7,4.8-11.6,10.9-11.6
	S340.9,38,340.9,45C340.9,52,336.1,56.6,330,56.6L330,56.6z M385.6,24.8V40H370V24.8h-11.4v40.5H370V49.4h15.6v15.8h11.4V24.8H385.6
	L385.6,24.8z M438.4,24.8h-36.1v9.1h12.4v31.4H426V33.8h12.4V24.8z"/>
</svg>
